<svg xmlns="http://www.w3.org/2000/svg" viewBox="0 0 16 16"><defs><style>.icon-canvas-transparent,.icon-vs-out{fill:#f6f6f6}.icon-canvas-transparent{opacity:0}.icon-vs-bg{fill:#424242}.icon-vs-action-blue{fill:#00539c}</style></defs><title>GoToSourceCode_16x</title><g id="canvas"><path d="M16,0V16H0V0Z" class="icon-canvas-transparent"/></g><g id="outline" style="display:none"><path d="M10,3v.879L6.354.232,4.232,2.354,5.879,4H0V7H5.879L4.232,8.646,4.586,9H2v3H6v3h9V12H14V9h1V6h1V3ZM9,9H8.121L9,8.121Z" class="icon-vs-out" style="display:none"/></g><g id="iconBg"><path d="M13,11H3V10H13ZM7,14h7V13H7ZM11,4V5h4V4ZM10,8h4V7H10Z" class="icon-vs-bg"/></g><g id="colorAction"><path d="M10.207,5.5,6.354,9.354l-.708-.708L8.293,6H1V5H8.293L5.646,2.354l.708-.708Z" class="icon-vs-action-blue"/></g></svg>